<svg width="1440" height="1024" viewBox="0 0 1440 1024" fill="none" xmlns="http://www.w3.org/2000/svg">
<g clip-path="url(#clip0_348_767)">
<g filter="url(#filter0_f_348_767)">
<path d="M220 429C496.142 429 720 205.142 720 -71C720 -347.142 496.142 -571 220 -571C-56.1424 -571 -280 -347.142 -280 -71C-280 205.142 -56.1424 429 220 429Z" fill="#458EFF"/>
<path d="M1142 1650C1485.52 1650 1764 1426.14 1764 1150C1764 873.858 1485.52 650 1142 650C798.479 650 520 873.858 520 1150C520 1426.14 798.479 1650 1142 1650Z" fill="#8BB9FF"/>
<path d="M81 1398C357.142 1398 581 1174.14 581 898C581 621.858 357.142 398 81 398C-195.142 398 -419 621.858 -419 898C-419 1174.14 -195.142 1398 81 1398Z" fill="#BAECBA" fill-opacity="0.44"/>
</g>
<path d="M1275.22 99.5129C1284.03 104.951 1290.1 112.681 1293.52 122.483C1294.91 134.919 1294.04 146.036 1286.92 156.515C1281.48 163.401 1275.48 166.729 1267.34 169.478C1255.76 170.355 1244.81 171.052 1235.21 163.453C1227.03 155.962 1222.67 149.336 1221.71 138.233C1221.22 127.893 1221.52 118.903 1228.07 110.433C1240.06 97.2248 1258.44 91.8732 1275.22 99.5129Z" fill="#F8F9FB"/>
<path d="M1299.47 98.3828C1325.38 98.3828 1351.3 98.3828 1378 98.3828C1378 99.1781 1378 99.9734 1378 100.793C1375.64 101.588 1373.29 102.383 1370.86 103.203C1370.86 123.085 1370.86 142.968 1370.86 163.453C1374.39 164.05 1374.39 164.05 1378 164.658C1378 165.851 1378 167.044 1378 168.273C1366.22 168.273 1354.44 168.273 1342.3 168.273C1342.3 167.478 1342.3 166.682 1342.3 165.863C1344.66 164.67 1347.01 163.477 1349.44 162.248C1349.47 154.033 1349.49 145.818 1349.51 137.602C1349.51 134.805 1349.52 132.008 1349.53 129.211C1349.55 125.2 1349.55 121.189 1349.56 117.178C1349.56 115.919 1349.57 114.66 1349.58 113.363C1349.58 112.205 1349.58 111.047 1349.58 109.854C1349.58 108.829 1349.58 107.804 1349.59 106.749C1349.7 104.401 1349.7 104.401 1348.25 103.203C1345.07 103.083 1341.92 103.036 1338.73 103.052C1337.84 103.048 1336.95 103.043 1336.03 103.038C1331.67 102.628 1331.67 102.628 1328.02 104.408C1327.9 106.207 1327.86 108.012 1327.85 109.816C1327.84 110.966 1327.84 112.116 1327.83 113.301C1327.83 114.553 1327.83 115.804 1327.82 117.093C1327.82 118.37 1327.82 119.646 1327.81 120.961C1327.81 123.667 1327.8 126.373 1327.8 129.078C1327.8 133.231 1327.78 137.382 1327.76 141.535C1327.75 144.157 1327.75 146.78 1327.75 149.403C1327.74 150.651 1327.73 151.9 1327.72 153.187C1327.73 154.341 1327.73 155.495 1327.74 156.684C1327.73 157.703 1327.73 158.721 1327.73 159.77C1327.8 162.518 1327.8 162.518 1330.4 164.658C1332.87 165.432 1332.87 165.432 1335.16 165.863C1335.16 166.658 1335.16 167.454 1335.16 168.273C1323.38 168.273 1311.6 168.273 1299.47 168.273C1299.47 167.478 1299.47 166.682 1299.47 165.863C1303 165.267 1303 165.267 1306.61 164.658C1306.61 144.378 1306.61 124.098 1306.61 103.203C1304.25 102.408 1301.89 101.612 1299.47 100.793C1299.47 99.9975 1299.47 99.2022 1299.47 98.3828Z" fill="#F6F8FA"/>
<path d="M1142.4 98.3828C1153.39 98.3828 1164.39 98.3828 1175.72 98.3828C1175.72 99.1781 1175.72 99.9734 1175.72 100.793C1174.28 101.352 1174.28 101.352 1172.82 101.923C1169.9 102.918 1169.9 102.918 1168.58 104.408C1168.47 106.378 1168.45 108.352 1168.46 110.325C1168.47 112.113 1168.47 112.113 1168.47 113.937C1168.48 115.192 1168.49 116.446 1168.5 117.738C1168.51 118.997 1168.51 120.256 1168.52 121.553C1168.53 124.675 1168.55 127.796 1168.58 130.918C1171.88 127.609 1175.17 124.294 1178.47 120.977C1179.87 119.572 1179.87 119.572 1181.3 118.138C1182.2 117.23 1183.1 116.321 1184.03 115.385C1185.28 114.135 1185.28 114.135 1186.54 112.861C1188.72 110.52 1190.71 108.357 1192.38 105.613C1191.79 103.823 1191.79 103.823 1191.19 101.998C1188.83 101.6 1186.47 101.203 1184.05 100.793C1184.05 99.9975 1184.05 99.2022 1184.05 98.3828C1193.86 98.3828 1203.68 98.3828 1213.79 98.3828C1213.79 99.1781 1213.79 99.9734 1213.79 100.793C1212.27 101.166 1210.75 101.538 1209.18 101.923C1201.64 104.457 1196.72 109.673 1191.19 115.253C1190.33 116.106 1189.47 116.958 1188.58 117.837C1186.66 119.77 1184.75 121.717 1182.86 123.688C1185.91 129.303 1189.77 134.055 1193.79 138.976C1195.18 140.692 1196.58 142.409 1197.97 144.126C1198.64 144.957 1199.32 145.787 1200.01 146.643C1201.64 148.677 1203.24 150.729 1204.82 152.806C1205.62 153.859 1206.42 154.912 1207.25 155.997C1207.92 156.9 1208.6 157.802 1209.29 158.732C1211.39 161.242 1211.39 161.242 1214.65 162.94C1215.54 163.507 1216.44 164.074 1217.36 164.658C1217.36 165.851 1217.36 167.044 1217.36 168.273C1205.98 168.273 1194.59 168.273 1182.86 168.273C1182.86 167.08 1182.86 165.887 1182.86 164.658C1185.61 164.658 1188.35 164.658 1191.19 164.658C1187.92 158.485 1184.29 153.337 1179.73 148.089C1173.57 140.913 1173.57 140.913 1170.96 136.943C1170.17 136.943 1169.39 136.943 1168.58 136.943C1168.58 145.294 1168.58 153.644 1168.58 162.248C1171.33 163.441 1174.08 164.634 1176.91 165.863C1176.91 166.658 1176.91 167.454 1176.91 168.273C1165.52 168.273 1154.13 168.273 1142.4 168.273C1142.4 167.08 1142.4 165.887 1142.4 164.658C1144.76 163.863 1147.11 163.067 1149.54 162.248C1149.54 142.365 1149.54 122.483 1149.54 101.998C1146.01 101.401 1146.01 101.401 1142.4 100.793C1142.4 99.9975 1142.4 99.2022 1142.4 98.3828Z" fill="#F7F9FB"/>
<path d="M1263.77 100.793C1270.1 104.238 1272.64 108.841 1274.85 115.7C1275.92 121.427 1276.14 126.981 1276.19 132.801C1276.2 133.854 1276.21 134.907 1276.23 135.992C1276.08 147.066 1274.02 156.685 1266.15 164.658C1261.7 166.913 1256.72 166.498 1251.87 165.863C1244.58 161.759 1242.27 155.708 1239.97 147.788C1239.34 143.17 1239.29 138.662 1239.38 134.006C1239.39 132.788 1239.41 131.571 1239.42 130.316C1239.69 120.161 1240.61 110.626 1247.85 102.977C1253.33 100 1257.69 99.5994 1263.77 100.793Z" fill="#29508E"/>
<path d="M1273.29 120.073C1274.07 120.073 1274.86 120.073 1275.67 120.073C1275.77 124.04 1275.84 128.005 1275.89 131.973C1275.92 133.079 1275.95 134.185 1275.98 135.324C1276.08 144.746 1275.07 154.161 1269.05 161.721C1265.26 165.556 1263.34 166.107 1258.12 166.315C1253.87 166.266 1251.16 165.99 1247.78 163.303C1242.22 156.983 1240.76 152.285 1240.92 143.999C1241.16 141.763 1241.16 141.763 1242.35 140.558C1242.63 137.314 1242.85 134.093 1243.02 130.843C1243.07 129.929 1243.12 129.015 1243.18 128.073C1243.3 125.808 1243.42 123.543 1243.54 121.278C1243.93 121.278 1244.33 121.278 1244.73 121.278C1244.73 128.834 1244.73 136.389 1244.73 144.173C1245.91 144.173 1247.09 144.173 1248.3 144.173C1248.45 143.428 1248.6 142.682 1248.75 141.914C1249.49 139.353 1249.49 139.353 1251.87 136.943C1254.58 136.581 1254.58 136.581 1257.75 136.567C1259.31 136.536 1259.31 136.536 1260.9 136.506C1263.77 136.943 1263.77 136.943 1265.93 138.548C1267.34 140.558 1267.34 140.558 1267.34 144.173C1268.52 144.173 1269.7 144.173 1270.91 144.173C1270.91 137.016 1270.91 129.858 1270.91 122.483C1271.69 122.483 1272.48 122.483 1273.29 122.483C1273.29 121.688 1273.29 120.893 1273.29 120.073Z" fill="#264F8D"/>
<path d="M1245.92 121.278C1246.71 121.278 1247.49 121.278 1248.3 121.278C1249.09 122.869 1249.87 124.46 1250.68 126.098C1252.79 126.229 1254.89 126.322 1257 126.4C1258.18 126.456 1259.35 126.511 1260.56 126.569C1263.94 126.438 1263.94 126.438 1265.83 123.67C1266.58 122.486 1266.58 122.486 1267.34 121.278C1268.12 121.278 1268.91 121.278 1269.72 121.278C1269.72 128.834 1269.72 136.389 1269.72 144.173C1268.93 144.173 1268.15 144.173 1267.34 144.173C1266.95 143.179 1266.55 142.185 1266.15 141.161C1264.1 137.915 1264.1 137.915 1261.02 137.536C1257.8 137.394 1255.02 137.447 1251.87 138.148C1249.39 140.986 1249.39 140.986 1248.3 144.173C1247.52 144.173 1246.73 144.173 1245.92 144.173C1245.92 136.618 1245.92 129.063 1245.92 121.278Z" fill="#F7F8FB"/>
</g>
<defs>
<filter id="filter0_f_348_767" x="-679" y="-831" width="2703" height="2741" filterUnits="userSpaceOnUse" color-interpolation-filters="sRGB">
<feFlood flood-opacity="0" result="BackgroundImageFix"/>
<feBlend mode="normal" in="SourceGraphic" in2="BackgroundImageFix" result="shape"/>
<feGaussianBlur stdDeviation="130" result="effect1_foregroundBlur_348_767"/>
</filter>
<clipPath id="clip0_348_767">
<rect width="1440" height="1024" fill="white"/>
</clipPath>
</defs>
</svg>
